<svg width="72" height="72" viewBox="0 0 72 72" fill="none" xmlns="http://www.w3.org/2000/svg">
<rect width="71.9984" height="72" rx="35.9992" fill="#0BB89D"/>
<path d="M46.756 29.5802C54.0741 38.4414 55.2089 49.7962 49.0109 55.9853C42.2752 62.7114 29.4296 60.7894 20.3195 51.6923C11.2094 42.5952 9.28469 29.7679 16.0205 23.0416C22.7564 16.3154 35.6019 18.2375 44.7119 27.3346" stroke="white" stroke-width="3" stroke-miterlimit="10" stroke-linecap="round" stroke-linejoin="round"/>
<path d="M42.1643 33.916C46.0959 39.1235 46.7617 45.3293 43.4364 48.65C39.636 52.445 32.0619 51.0344 26.519 45.4995C20.9762 39.9645 19.5637 32.4011 23.3641 28.6061C27.1644 24.8112 34.7386 26.2217 40.2814 31.7566" stroke="white" stroke-width="3" stroke-miterlimit="10" stroke-linecap="round" stroke-linejoin="round"/>
<path d="M37.594 38.2508C38.2947 39.857 38.219 41.4859 37.2411 42.4624C35.7872 43.9141 32.8897 43.3746 30.7692 41.2572C28.6488 39.1397 28.1085 36.2463 29.5623 34.7946C31.0161 33.3428 33.9137 33.8823 36.0341 35.9998" stroke="white" stroke-width="3" stroke-miterlimit="10" stroke-linecap="round" stroke-linejoin="round"/>
<path d="M33.4023 38.6277L54.9436 17.1172" stroke="white" stroke-width="3" stroke-miterlimit="10" stroke-linecap="round" stroke-linejoin="round"/>
<path d="M49.4336 22.5473H53.1579C53.9092 22.5473 54.6302 22.2514 55.1644 21.7238L59.9954 16.9525H55.0031L55.0364 12.0005L50.2583 16.8247C49.7299 17.358 49.4336 18.0781 49.4336 18.8283V22.5473Z" stroke="white" stroke-width="3" stroke-miterlimit="10" stroke-linecap="round" stroke-linejoin="round"/>
</svg>
