<svg width="185" height="42" viewBox="0 0 185 42" fill="none" xmlns="http://www.w3.org/2000/svg">
<rect y="0.5" width="41" height="40" rx="2" fill="white"/>
<g clip-path="url(#clip0_1078_3536)">
<path d="M36.9889 37.5001L36.9974 37.4987V25.0292C36.9974 18.9291 35.6841 14.23 28.5526 14.23C25.1243 14.23 22.8236 16.1113 21.8844 17.8949H21.7852V14.7995H15.0234V37.4987H22.0643V26.2589C22.0643 23.2995 22.6253 20.4378 26.2902 20.4378C29.9013 20.4378 29.9551 23.8151 29.9551 26.4487V37.5001H36.9889Z" fill="#0090DB"/>
<path d="M3.5625 14.8008H10.6118V37.5H3.5625V14.8008Z" fill="#0090DB"/>
<path d="M7.08283 3.5C4.82892 3.5 3 5.32892 3 7.58283C3 9.83675 4.82892 11.7039 7.08283 11.7039C9.33675 11.7039 11.1657 9.83675 11.1657 7.58283C11.1642 5.32892 9.33533 3.5 7.08283 3.5Z" fill="#0090DB"/>
</g>
<path d="M65.604 31.5H60.062L55.608 23.442H52.072V31.5H47.244V8.822H57.852C60.1867 8.822 62.034 9.502 63.394 10.862C64.7767 12.222 65.468 13.9787 65.468 16.132C65.468 17.9907 64.9807 19.498 64.006 20.654C63.054 21.81 61.8867 22.5467 60.504 22.864L65.604 31.5ZM57.138 19.192C58.1353 19.192 58.9513 18.92 59.586 18.376C60.2207 17.8093 60.538 17.0613 60.538 16.132C60.538 15.2027 60.2207 14.466 59.586 13.922C58.9513 13.3553 58.1353 13.072 57.138 13.072H52.072V19.192H57.138ZM75.6784 31.908C73.1397 31.908 71.043 31.1147 69.3884 29.528C67.7337 27.9413 66.9064 25.856 66.9064 23.272C66.9064 20.8467 67.6997 18.8067 69.2864 17.152C70.8957 15.4973 72.9357 14.67 75.4064 14.67C77.8544 14.67 79.8377 15.5087 81.3564 17.186C82.875 18.8407 83.6344 21.0167 83.6344 23.714V24.666H71.4284C71.5644 25.754 72.0517 26.6607 72.8904 27.386C73.729 28.1113 74.817 28.474 76.1544 28.474C76.8797 28.474 77.6617 28.3267 78.5004 28.032C79.3617 27.7373 80.0417 27.3407 80.5404 26.842L82.4444 29.63C80.7897 31.1487 78.5344 31.908 75.6784 31.908ZM79.4524 21.742C79.3844 20.8127 79.0104 19.974 78.3304 19.226C77.673 18.478 76.6984 18.104 75.4064 18.104C74.1824 18.104 73.2304 18.478 72.5504 19.226C71.8704 19.9513 71.4737 20.79 71.3604 21.742H79.4524ZM94.4033 31.908C91.8647 31.908 89.7793 31.1033 88.1473 29.494C86.5153 27.8847 85.6993 25.8107 85.6993 23.272C85.6993 20.756 86.5153 18.6933 88.1473 17.084C89.7793 15.4747 91.8647 14.67 94.4033 14.67C97.3047 14.67 99.4693 15.656 100.897 17.628L98.0753 20.28C97.282 19.1013 96.126 18.512 94.6073 18.512C93.2927 18.512 92.216 18.954 91.3773 19.838C90.5613 20.6993 90.1533 21.844 90.1533 23.272C90.1533 24.7 90.5613 25.856 91.3773 26.74C92.216 27.624 93.2927 28.066 94.6073 28.066C96.0807 28.066 97.2367 27.4767 98.0753 26.298L100.897 28.916C99.4693 30.9107 97.3047 31.908 94.4033 31.908ZM108.038 31.5H103.72V15.078H108.038V17.322C108.65 16.5513 109.432 15.9167 110.384 15.418C111.336 14.9193 112.299 14.67 113.274 14.67V18.886C112.979 18.818 112.583 18.784 112.084 18.784C111.359 18.784 110.588 18.9653 109.772 19.328C108.956 19.6907 108.378 20.1327 108.038 20.654V31.5ZM131.374 31.5H127.056V29.426C125.583 31.0807 123.656 31.908 121.276 31.908C119.508 31.908 118.182 31.4547 117.298 30.548C116.414 29.6413 115.972 28.372 115.972 26.74V15.078H120.29V25.04C120.29 27.0573 121.299 28.066 123.316 28.066C124.835 28.066 126.081 27.4427 127.056 26.196V15.078H131.374V31.5ZM137.804 13.31C137.101 13.31 136.489 13.0607 135.968 12.562C135.469 12.0407 135.22 11.4287 135.22 10.726C135.22 10.0233 135.469 9.42267 135.968 8.924C136.489 8.42533 137.101 8.176 137.804 8.176C138.529 8.176 139.141 8.42533 139.64 8.924C140.138 9.42267 140.388 10.0233 140.388 10.726C140.388 11.4287 140.138 12.0407 139.64 12.562C139.141 13.0607 138.529 13.31 137.804 13.31ZM139.98 31.5H135.662V15.078H139.98V31.5ZM149.769 31.908C148.25 31.908 147.094 31.5227 146.301 30.752C145.508 29.9813 145.111 28.8707 145.111 27.42V18.852H142.391V15.078H145.111V10.59H149.463V15.078H152.795V18.852H149.463V26.264C149.463 26.7853 149.599 27.216 149.871 27.556C150.143 27.896 150.506 28.066 150.959 28.066C151.639 28.066 152.138 27.9073 152.455 27.59L153.373 30.854C152.58 31.5567 151.378 31.908 149.769 31.908ZM163.467 31.908C160.929 31.908 158.832 31.1147 157.177 29.528C155.523 27.9413 154.695 25.856 154.695 23.272C154.695 20.8467 155.489 18.8067 157.075 17.152C158.685 15.4973 160.725 14.67 163.195 14.67C165.643 14.67 167.627 15.5087 169.145 17.186C170.664 18.8407 171.423 21.0167 171.423 23.714V24.666H159.217C159.353 25.754 159.841 26.6607 160.679 27.386C161.518 28.1113 162.606 28.474 163.943 28.474C164.669 28.474 165.451 28.3267 166.289 28.032C167.151 27.7373 167.831 27.3407 168.329 26.842L170.233 29.63C168.579 31.1487 166.323 31.908 163.467 31.908ZM167.241 21.742C167.173 20.8127 166.799 19.974 166.119 19.226C165.462 18.478 164.487 18.104 163.195 18.104C161.971 18.104 161.019 18.478 160.339 19.226C159.659 19.9513 159.263 20.79 159.149 21.742H167.241ZM178.86 31.5H174.542V15.078H178.86V17.322C179.472 16.5513 180.254 15.9167 181.206 15.418C182.158 14.9193 183.122 14.67 184.096 14.67V18.886C183.802 18.818 183.405 18.784 182.906 18.784C182.181 18.784 181.41 18.9653 180.594 19.328C179.778 19.6907 179.2 20.1327 178.86 20.654V31.5Z" fill="white"/>
<defs>
<clipPath id="clip0_1078_3536">
<rect width="34" height="34" fill="white" transform="translate(3 3.5)"/>
</clipPath>
</defs>
</svg>
