<svg width="148" height="44" viewBox="0 0 148 44" fill="none" xmlns="http://www.w3.org/2000/svg">
<path d="M16.66 34H2.244V11.322H7.072V29.75H16.66V34ZM22.0809 15.81C21.3782 15.81 20.7662 15.5607 20.2449 15.062C19.7462 14.5407 19.4969 13.9287 19.4969 13.226C19.4969 12.5233 19.7462 11.9227 20.2449 11.424C20.7662 10.9253 21.3782 10.676 22.0809 10.676C22.8062 10.676 23.4182 10.9253 23.9169 11.424C24.4155 11.9227 24.6649 12.5233 24.6649 13.226C24.6649 13.9287 24.4155 14.5407 23.9169 15.062C23.4182 15.5607 22.8062 15.81 22.0809 15.81ZM24.2569 34H19.9389V17.578H24.2569V34ZM43.9405 34H39.6225V24.072C39.6225 22.032 38.6138 21.012 36.5965 21.012C35.0325 21.012 33.7858 21.658 32.8565 22.95V34H28.5385V17.578H32.8565V19.72C34.2845 18.02 36.1998 17.17 38.6025 17.17C40.3705 17.17 41.6965 17.6347 42.5805 18.564C43.4872 19.4933 43.9405 20.774 43.9405 22.406V34ZM64.2759 34H58.8699L54.5179 27.676L52.5459 29.784V34H48.2279V11.322H52.5459V24.888L58.7679 17.578H64.0719L57.5779 25.024L64.2759 34ZM73.942 34.408C71.4034 34.408 69.3067 33.6147 67.652 32.028C65.9974 30.4413 65.17 28.356 65.17 25.772C65.17 23.3467 65.9634 21.3067 67.55 19.652C69.1594 17.9973 71.1994 17.17 73.67 17.17C76.118 17.17 78.1014 18.0087 79.62 19.686C81.1387 21.3407 81.898 23.5167 81.898 26.214V27.166H69.692C69.828 28.254 70.3154 29.1607 71.154 29.886C71.9927 30.6113 73.0807 30.974 74.418 30.974C75.1434 30.974 75.9254 30.8267 76.764 30.532C77.6254 30.2373 78.3054 29.8407 78.804 29.342L80.708 32.13C79.0534 33.6487 76.798 34.408 73.942 34.408ZM77.716 24.242C77.648 23.3127 77.274 22.474 76.594 21.726C75.9367 20.978 74.962 20.604 73.67 20.604C72.446 20.604 71.494 20.978 70.814 21.726C70.134 22.4513 69.7374 23.29 69.624 24.242H77.716ZM100.657 34H96.305V31.892C94.9677 33.5693 93.279 34.408 91.239 34.408C89.1083 34.408 87.363 33.6487 86.003 32.13C84.643 30.5887 83.963 28.4807 83.963 25.806C83.963 23.1767 84.643 21.08 86.003 19.516C87.363 17.952 89.1083 17.17 91.239 17.17C93.3243 17.17 95.013 18.0087 96.305 19.686V11.322H100.657V34ZM92.565 30.566C93.2903 30.566 94.0043 30.396 94.707 30.056C95.4097 29.6933 95.9423 29.24 96.305 28.696V22.882C95.9423 22.338 95.4097 21.896 94.707 21.556C94.0043 21.1933 93.2903 21.012 92.565 21.012C91.341 21.012 90.3437 21.454 89.573 22.338C88.8023 23.222 88.417 24.378 88.417 25.806C88.417 27.2113 88.8023 28.356 89.573 29.24C90.3437 30.124 91.341 30.566 92.565 30.566Z" fill="white"/>
<rect x="107" width="41" height="40" rx="2" fill="white"/>
<g clip-path="url(#clip0_1078_3544)">
<path d="M143.989 37.0001L143.997 36.9987V24.5292C143.997 18.4291 142.684 13.73 135.553 13.73C132.124 13.73 129.824 15.6113 128.884 17.3949H128.785V14.2995H122.023V36.9987H129.064V25.7589C129.064 22.7995 129.625 19.9378 133.29 19.9378C136.901 19.9378 136.955 23.3151 136.955 25.9487V37.0001H143.989Z" fill="#0090DB"/>
<path d="M110.562 14.3008H117.612V37H110.562V14.3008Z" fill="#0090DB"/>
<path d="M114.083 3C111.829 3 110 4.82892 110 7.08283C110 9.33675 111.829 11.2039 114.083 11.2039C116.337 11.2039 118.166 9.33675 118.166 7.08283C118.164 4.82892 116.335 3 114.083 3Z" fill="#0090DB"/>
</g>
<defs>
<clipPath id="clip0_1078_3544">
<rect width="34" height="34" fill="white" transform="translate(110 3)"/>
</clipPath>
</defs>
</svg>
