<svg width="101" height="111" viewBox="0 0 101 111" fill="none" xmlns="http://www.w3.org/2000/svg">
<path d="M88.9144 32.7403C92.7507 29.755 93.4325 24.2353 90.4373 20.4117C87.442 16.5881 81.9038 15.9086 78.0674 18.8939C74.2311 21.8792 73.5493 27.3989 76.5446 31.2225C79.5399 35.0461 85.078 35.7257 88.9144 32.7403Z" fill="#0BB89D"/>
<path d="M81.875 37.5601L82.5451 39.501H83.4941H84.4432L85.1133 37.5601H83.4941H81.875Z" fill="#0BB89D"/>
<path d="M91.2748 37.5391V37.5112H90.2321L86.7979 44.2255L88.5345 45.4239L85.9447 50.0416L84.5683 40.1328H83.4927H82.4172L81.0405 50.0416L78.4509 45.4241L80.1875 44.2257L76.7531 37.5114H76.2614C70.5945 37.5114 65.9844 42.1063 65.9844 47.7545V57.9999H72.3086V47.7545C72.3086 46.4727 72.9355 45.343 73.8897 44.623V57.9999H92.77V44.4005C93.9081 45.0928 94.6768 46.3309 94.6768 47.7543V57.9997H101.001V47.7543C101.001 42.2915 96.6851 37.827 91.2748 37.5391Z" fill="#0BB89D"/>
<path d="M24.0586 32.7404C27.8949 29.755 28.5767 24.2352 25.5815 20.4116C22.5863 16.5879 17.0482 15.9084 13.2119 18.8938C9.37557 21.8792 8.69375 27.399 11.689 31.2226C14.6842 35.0462 20.2223 35.7258 24.0586 32.7404Z" fill="#0BB89D"/>
<path d="M17.0195 37.5601L17.6896 39.501H18.6387H19.5877L20.2578 37.5601H18.6387H17.0195Z" fill="#0BB89D"/>
<path d="M26.4193 37.5391V37.5112H25.3766L21.9424 44.2255L23.6791 45.4239L21.0893 50.0416L19.7128 40.1328H18.6373H17.5617L16.185 50.0416L13.5954 45.4241L15.3321 44.2257L11.8977 37.5114H11.4059C5.73901 37.5114 1.12891 42.1063 1.12891 47.7545V57.9999H7.45314V47.7545C7.45314 46.4727 8.08004 45.343 9.0342 44.623V57.9999H27.9145V44.4005C29.0526 45.0928 29.8214 46.3309 29.8214 47.7543V57.9997H36.1456V47.7543C36.1456 42.2915 31.8296 37.827 26.4193 37.5391Z" fill="#0BB89D"/>
<path d="M57.2945 25.0858C62.2933 21.1958 63.1818 14.0035 59.2788 9.02126C55.3759 4.03903 48.1595 3.15357 43.1606 7.04352C38.1618 10.9335 37.2733 18.1258 41.1763 23.108C45.0792 28.0903 52.2956 28.9757 57.2945 25.0858Z" fill="#0BB89D"/>
<path d="M48.1172 31.3667L48.9903 33.8958H50.2269H51.4636L52.3367 31.3667H50.2269H48.1172Z" fill="#0BB89D"/>
<path d="M60.3642 31.3391V31.3027H59.0055L54.5307 40.0516L56.7936 41.6131L53.419 47.6301L51.6255 34.7187H50.224H48.8225L47.0287 47.6301L43.6544 41.6134L45.9172 40.0519L41.4421 31.303H40.8013C33.4172 31.303 27.4102 37.2903 27.4102 44.65V57.9999H35.6508V44.65C35.6508 42.9797 36.4677 41.5077 37.7109 40.5696V57.9999H62.3125V40.2797C63.7954 41.1817 64.7972 42.7949 64.7972 44.6497V57.9997H73.0378V44.6497C73.0378 37.5316 67.414 31.7142 60.3642 31.3391Z" fill="#0BB89D"/>
<path d="M10.6069 89.483H4.92116C2.76452 89.483 1 87.7243 1 85.5749V79.9081C1 77.7586 2.76452 76 4.92116 76H10.6069C12.7635 76 14.528 77.7586 14.528 79.9081V85.5749C14.528 87.7243 12.7635 89.483 10.6069 89.483ZM4.92116 78.6966C4.25457 78.6966 3.66639 79.2437 3.66639 79.9472V85.614C3.66639 86.2783 4.21535 86.8645 4.92116 86.8645H10.6069C11.2734 86.8645 11.8616 86.3174 11.8616 85.614V79.9472C11.8616 79.2828 11.3127 78.6966 10.6069 78.6966H4.92116Z" fill="#0BB89D" stroke="#0BB89D" stroke-width="1.2"/>
<path d="M92.8764 89.483H87.1907C85.0341 89.483 83.2695 87.7243 83.2695 85.5749V79.9081C83.2695 77.7586 85.0341 76 87.1907 76H92.8764C95.033 76 96.7975 77.7586 96.7975 79.9081V85.5749C96.7975 87.7243 95.033 89.483 92.8764 89.483ZM87.1907 78.6966C86.5241 78.6966 85.9359 79.2437 85.9359 79.9472V85.614C85.9359 86.2783 86.4849 86.8645 87.1907 86.8645H92.8764C93.543 86.8645 94.1312 86.3174 94.1312 85.614V79.9472C94.1312 79.2828 93.5822 78.6966 92.8764 78.6966H87.1907Z" fill="#0BB89D" stroke="#0BB89D" stroke-width="1.2"/>
<path d="M62.6491 80H31.6587C30.7863 80 30.0977 79.7134 30.0977 78.9924C30.0977 78.2715 30.7863 78 31.6587 78H62.6491C63.5214 78 64.2101 78.2715 64.2101 78.9924C64.2101 79.6755 63.5214 80 62.6491 80Z" fill="#0BB89D" stroke="#0BB89D" stroke-width="1.2"/>
<path d="M51.161 87H31.1078C30.5433 87 30.0977 86.7134 30.0977 85.9924C30.0977 85.2715 30.5433 85 31.1078 85H51.161C51.7255 85 52.1711 85.2715 52.1711 85.9924C52.1711 86.6755 51.7255 87 51.161 87Z" fill="#0BB89D" stroke="#0BB89D" stroke-width="1.2"/>
<path d="M10.6069 109.483H4.92116C2.76452 109.483 1 107.724 1 105.575V99.9081C1 97.7586 2.76452 96 4.92116 96H10.6069C12.7635 96 14.528 97.7586 14.528 99.9081V105.575C14.528 107.724 12.7635 109.483 10.6069 109.483ZM4.92116 98.6966C4.25457 98.6966 3.66639 99.2437 3.66639 99.9472V105.614C3.66639 106.278 4.21535 106.865 4.92116 106.865H10.6069C11.2734 106.865 11.8616 106.317 11.8616 105.614V99.9472C11.8616 99.2828 11.3127 98.6966 10.6069 98.6966H4.92116Z" fill="#0BB89D" stroke="#0BB89D" stroke-width="1.2"/>
<path d="M92.8764 109.483H87.1907C85.0341 109.483 83.2695 107.724 83.2695 105.575V99.9081C83.2695 97.7586 85.0341 96 87.1907 96H92.8764C95.033 96 96.7975 97.7586 96.7975 99.9081V105.575C96.7975 107.724 95.033 109.483 92.8764 109.483ZM87.1907 98.6966C86.5241 98.6966 85.9359 99.2437 85.9359 99.9472V105.614C85.9359 106.278 86.4849 106.865 87.1907 106.865H92.8764C93.543 106.865 94.1312 106.317 94.1312 105.614V99.9472C94.1312 99.2828 93.5822 98.6966 92.8764 98.6966H87.1907Z" fill="#0BB89D" stroke="#0BB89D" stroke-width="1.2"/>
<path d="M62.6491 100H31.6587C30.7863 100 30.0977 99.7134 30.0977 98.9924C30.0977 98.2715 30.7863 98 31.6587 98H62.6491C63.5214 98 64.2101 98.2715 64.2101 98.9924C64.2101 99.6755 63.5214 100 62.6491 100Z" fill="#0BB89D" stroke="#0BB89D" stroke-width="1.2"/>
<path d="M51.161 107H31.1078C30.5433 107 30.0977 106.713 30.0977 105.992C30.0977 105.271 30.5433 105 31.1078 105H51.161C51.7255 105 52.1711 105.271 52.1711 105.992C52.1711 106.675 51.7255 107 51.161 107Z" fill="#0BB89D" stroke="#0BB89D" stroke-width="1.2"/>
</svg>
