<svg width="104" height="122" viewBox="0 0 104 122" fill="none" xmlns="http://www.w3.org/2000/svg">
<path d="M89.9144 43.7403C93.7507 40.755 94.4325 35.2353 91.4373 31.4117C88.442 27.5881 82.9038 26.9086 79.0674 29.8939C75.2311 32.8792 74.5493 38.3989 77.5446 42.2225C80.5399 46.0461 86.078 46.7257 89.9144 43.7403Z" fill="#0BB89D"/>
<path d="M82.875 48.5601L83.5451 50.501H84.4941H85.4432L86.1133 48.5601H84.4941H82.875Z" fill="#0BB89D"/>
<path d="M92.2748 48.5391V48.5112H91.2321L87.7979 55.2255L89.5345 56.4239L86.9447 61.0416L85.5683 51.1328H84.4927H83.4172L82.0405 61.0416L79.4509 56.4241L81.1875 55.2257L77.7531 48.5114H77.2614C71.5945 48.5114 66.9844 53.1063 66.9844 58.7545V68.9999H73.3086V58.7545C73.3086 57.4727 73.9355 56.343 74.8897 55.623V68.9999H93.77V55.4005C94.9081 56.0928 95.6768 57.3309 95.6768 58.7543V68.9997H102.001V58.7543C102.001 53.2915 97.6851 48.827 92.2748 48.5391Z" fill="#0BB89D"/>
<path d="M25.0586 43.7404C28.8949 40.755 29.5767 35.2352 26.5815 31.4116C23.5863 27.5879 18.0482 26.9084 14.2119 29.8938C10.3756 32.8792 9.69375 38.399 12.689 42.2226C15.6842 46.0462 21.2223 46.7258 25.0586 43.7404Z" fill="#0BB89D"/>
<path d="M18.0195 48.5601L18.6896 50.501H19.6387H20.5877L21.2578 48.5601H19.6387H18.0195Z" fill="#0BB89D"/>
<path d="M27.4193 48.5391V48.5112H26.3766L22.9424 55.2255L24.6791 56.4239L22.0893 61.0416L20.7128 51.1328H19.6373H18.5617L17.185 61.0416L14.5954 56.4241L16.3321 55.2257L12.8977 48.5114H12.4059C6.73901 48.5114 2.12891 53.1063 2.12891 58.7545V68.9999H8.45314V58.7545C8.45314 57.4727 9.08004 56.343 10.0342 55.623V68.9999H28.9145V55.4005C30.0526 56.0928 30.8214 57.3309 30.8214 58.7543V68.9997H37.1456V58.7543C37.1456 53.2915 32.8296 48.827 27.4193 48.5391Z" fill="#0BB89D"/>
<path d="M58.2945 36.0858C63.2933 32.1958 64.1818 25.0035 60.2788 20.0213C56.3759 15.039 49.1595 14.1536 44.1606 18.0435C39.1618 21.9335 38.2733 29.1258 42.1763 34.108C46.0792 39.0903 53.2956 39.9757 58.2945 36.0858Z" fill="#0BB89D"/>
<path d="M49.1172 42.3667L49.9903 44.8958H51.2269H52.4636L53.3367 42.3667H51.2269H49.1172Z" fill="#0BB89D"/>
<path d="M61.3642 42.3391V42.3027H60.0055L55.5307 51.0516L57.7936 52.6131L54.419 58.6301L52.6255 45.7187H51.224H49.8225L48.0287 58.6301L44.6544 52.6134L46.9172 51.0519L42.4421 42.303H41.8013C34.4172 42.303 28.4102 48.2903 28.4102 55.65V68.9999H36.6508V55.65C36.6508 53.9797 37.4677 52.5077 38.7109 51.5696V68.9999H63.3125V51.2797C64.7954 52.1817 65.7972 53.7949 65.7972 55.6497V68.9997H74.0378V55.6497C74.0378 48.5316 68.414 42.7142 61.3642 42.3391Z" fill="#0BB89D"/>
<path d="M11.6069 100.483H5.92116C3.76452 100.483 2 98.7243 2 96.5749V90.9081C2 88.7586 3.76452 87 5.92116 87H11.6069C13.7635 87 15.528 88.7586 15.528 90.9081V96.5749C15.528 98.7243 13.7635 100.483 11.6069 100.483ZM5.92116 89.6966C5.25457 89.6966 4.66639 90.2437 4.66639 90.9472V96.614C4.66639 97.2783 5.21535 97.8645 5.92116 97.8645H11.6069C12.2734 97.8645 12.8616 97.3174 12.8616 96.614V90.9472C12.8616 90.2828 12.3127 89.6966 11.6069 89.6966H5.92116Z" fill="#0BB89D" stroke="#0BB89D" stroke-width="1.2"/>
<path d="M93.8764 100.483H88.1907C86.0341 100.483 84.2695 98.7243 84.2695 96.5749V90.9081C84.2695 88.7586 86.0341 87 88.1907 87H93.8764C96.033 87 97.7975 88.7586 97.7975 90.9081V96.5749C97.7975 98.7243 96.033 100.483 93.8764 100.483ZM88.1907 89.6966C87.5241 89.6966 86.9359 90.2437 86.9359 90.9472V96.614C86.9359 97.2783 87.4849 97.8645 88.1907 97.8645H93.8764C94.543 97.8645 95.1312 97.3174 95.1312 96.614V90.9472C95.1312 90.2828 94.5822 89.6966 93.8764 89.6966H88.1907Z" fill="#0BB89D" stroke="#0BB89D" stroke-width="1.2"/>
<path d="M63.6491 91H32.6587C31.7863 91 31.0977 90.7134 31.0977 89.9924C31.0977 89.2715 31.7863 89 32.6587 89H63.6491C64.5214 89 65.2101 89.2715 65.2101 89.9924C65.2101 90.6755 64.5214 91 63.6491 91Z" fill="#0BB89D" stroke="#0BB89D" stroke-width="1.2"/>
<path d="M52.161 98H32.1078C31.5433 98 31.0977 97.7134 31.0977 96.9924C31.0977 96.2715 31.5433 96 32.1078 96H52.161C52.7255 96 53.1711 96.2715 53.1711 96.9924C53.1711 97.6755 52.7255 98 52.161 98Z" fill="#0BB89D" stroke="#0BB89D" stroke-width="1.2"/>
<path d="M11.6069 120.483H5.92116C3.76452 120.483 2 118.724 2 116.575V110.908C2 108.759 3.76452 107 5.92116 107H11.6069C13.7635 107 15.528 108.759 15.528 110.908V116.575C15.528 118.724 13.7635 120.483 11.6069 120.483ZM5.92116 109.697C5.25457 109.697 4.66639 110.244 4.66639 110.947V116.614C4.66639 117.278 5.21535 117.865 5.92116 117.865H11.6069C12.2734 117.865 12.8616 117.317 12.8616 116.614V110.947C12.8616 110.283 12.3127 109.697 11.6069 109.697H5.92116Z" fill="#0BB89D" stroke="#0BB89D" stroke-width="1.2"/>
<path d="M93.8764 120.483H88.1907C86.0341 120.483 84.2695 118.724 84.2695 116.575V110.908C84.2695 108.759 86.0341 107 88.1907 107H93.8764C96.033 107 97.7975 108.759 97.7975 110.908V116.575C97.7975 118.724 96.033 120.483 93.8764 120.483ZM88.1907 109.697C87.5241 109.697 86.9359 110.244 86.9359 110.947V116.614C86.9359 117.278 87.4849 117.865 88.1907 117.865H93.8764C94.543 117.865 95.1312 117.317 95.1312 116.614V110.947C95.1312 110.283 94.5822 109.697 93.8764 109.697H88.1907Z" fill="#0BB89D" stroke="#0BB89D" stroke-width="1.2"/>
<path d="M63.6491 111H32.6587C31.7863 111 31.0977 110.713 31.0977 109.992C31.0977 109.271 31.7863 109 32.6587 109H63.6491C64.5214 109 65.2101 109.271 65.2101 109.992C65.2101 110.675 64.5214 111 63.6491 111Z" fill="#0BB89D" stroke="#0BB89D" stroke-width="1.2"/>
<path d="M52.161 118H32.1078C31.5433 118 31.0977 117.713 31.0977 116.992C31.0977 116.271 31.5433 116 32.1078 116H52.161C52.7255 116 53.1711 116.271 53.1711 116.992C53.1711 117.675 52.7255 118 52.161 118Z" fill="#0BB89D" stroke="#0BB89D" stroke-width="1.2"/>
</svg>
