<svg width="200" height="36" viewBox="0 0 200 36" fill="none" xmlns="http://www.w3.org/2000/svg">
<path d="M159.066 31.5H154.551V36H159.066V31.5Z" fill="white"/>
<path d="M182.843 10.5003V13.5483C180.615 11.6523 177.726 10.5003 174.559 10.5003C167.504 10.5003 161.773 16.2243 161.773 23.2443C161.773 30.2643 167.516 35.9883 174.559 35.9883C177.714 35.9883 180.603 34.8363 182.843 32.9403V35.9883H187.357V10.4883H182.843V10.5003ZM174.571 31.5003C170.008 31.5003 166.288 27.8043 166.288 23.2443C166.288 18.6843 169.996 14.9883 174.571 14.9883C179.146 14.9883 182.855 18.6843 182.855 23.2443C182.855 27.8043 179.134 31.5003 174.571 31.5003Z" fill="white"/>
<path d="M199.999 10.5H195.484V36H199.999V10.5Z" fill="white"/>
<path d="M149.893 36C144.5 36 140.117 31.62 140.117 26.256V6H144.632V26.256C144.632 29.148 146.992 31.512 149.905 31.512V36H149.893Z" fill="white"/>
<path d="M128.573 28.5C127.056 30.324 124.768 31.5 122.204 31.5C118.423 31.5 115.233 28.956 114.245 25.5H134.785C134.917 24.768 135.002 24.024 135.002 23.244C135.002 16.212 129.259 10.5 122.216 10.5C115.173 10.5 109.43 16.224 109.43 23.244C109.43 30.264 115.173 35.988 122.216 35.988C127.393 35.988 131.847 32.904 133.858 28.488H128.573V28.5ZM122.204 15C125.984 15 129.175 17.544 130.162 21H114.245C115.233 17.544 118.423 15 122.204 15Z" fill="white"/>
<path d="M78.8585 10.5C76.9201 10.5 75.1142 11.076 73.5851 12.048V10.5H69.0703V36H73.5851V20.256C73.5851 17.364 75.9449 15 78.8585 15C81.772 15 84.1318 17.352 84.1318 20.256V36H88.6466V20.256C88.6345 14.88 84.2522 10.5 78.8585 10.5Z" fill="white"/>
<path d="M60.9445 10.5H56.4297V36H60.9445V10.5Z" fill="white"/>
<path d="M104.745 15V10.5H99.4719V6H94.957V26.256C94.957 31.632 99.3394 36 104.733 36V31.5C101.832 31.5 99.4598 29.148 99.4598 26.244V15H104.745Z" fill="white"/>
<path d="M39.1285 10.5C36.1788 10.5 33.5181 11.712 31.6038 13.668C29.6895 11.724 27.0287 10.5 24.0791 10.5C22.4658 10.5 20.9367 10.872 19.5642 11.532V10.5C19.5642 4.716 14.8327 0 9.02965 0H0V8.99999C0 14.784 4.73154 19.5 10.5346 19.5H13.5445V36H19.5642V21C19.5642 18.516 21.5869 16.5 24.0791 16.5C26.5712 16.5 28.5939 18.516 28.5939 21V36H34.6137V21C34.6137 18.516 36.6363 16.5 39.1285 16.5C41.6207 16.5 43.6433 18.516 43.6433 21V36H49.6631V21C49.6631 15.216 44.9315 10.5 39.1285 10.5ZM6.01976 8.99999V6H9.02965C11.5218 6 13.5445 8.01599 13.5445 10.5V13.5H10.5346C8.04241 13.5 6.01976 11.484 6.01976 8.99999Z" fill="#0BB89D"/>
</svg>
