<svg width="98" height="115" viewBox="0 0 98 115" fill="none" xmlns="http://www.w3.org/2000/svg">
<g clip-path="url(#clip0_1078_3403)">
<path fill-rule="evenodd" clip-rule="evenodd" d="M52.8857 1.70652V20.2344C52.8857 21.1772 52.1219 21.9409 51.1792 21.9409C50.2364 21.9409 49.4727 21.1772 49.4727 20.2344V1.70652C49.4727 0.763743 50.2364 0 51.1792 0C52.1219 0 52.8857 0.763743 52.8857 1.70652ZM51.2847 78.6235C37.6849 78.6235 26.6602 67.5988 26.6602 53.999C26.6754 40.4059 37.6916 29.3897 51.2847 29.3745C64.8844 29.3745 75.9092 40.3993 75.9092 53.999C75.9092 67.5988 64.8844 78.6235 51.2847 78.6235ZM43.213 48.4986C43.7358 52.5515 47.1984 55.5779 51.2847 55.5551C53.8444 55.5437 55.9366 57.5959 55.9738 60.1566C56.0109 62.7164 53.9797 64.8286 51.4199 64.8914C51.2942 64.8628 51.1666 64.8476 51.038 64.8476C50.9485 64.8486 50.859 64.8552 50.7714 64.8695C48.4021 64.6095 46.606 62.6107 46.6003 60.2271C46.6003 59.2738 45.8271 58.5005 44.8738 58.5005C43.9206 58.5005 43.1473 59.2738 43.1473 60.2271C43.1711 63.9153 45.6633 67.1303 49.2296 68.0721V70.2109C49.2296 71.1537 49.9934 71.9175 50.9361 71.9175C51.8789 71.9175 52.6426 71.1537 52.6426 70.2109V68.1768C56.7585 67.4493 59.6401 63.7029 59.2868 59.5385C58.9335 55.3732 55.4624 52.1659 51.2828 52.142C48.7049 52.1459 46.6127 50.0584 46.6098 47.4815C46.606 44.9036 48.6935 42.8114 51.2713 42.8086C53.8492 42.8057 55.9405 44.8932 55.9433 47.471C55.9433 48.4024 56.6985 49.1575 57.6298 49.1575C58.5612 49.1575 59.3164 48.4024 59.3164 47.471C59.3411 43.5428 56.5147 40.1764 52.6426 39.5212V37.5433C52.6426 36.6005 51.8789 35.8368 50.9361 35.8368C49.9934 35.8368 49.2296 36.6005 49.2296 37.5433V39.625C45.2709 40.6392 42.6902 44.4465 43.213 48.4986ZM90.7652 90.3845C90.7794 90.3778 90.7928 90.3712 90.8052 90.3645C93.2211 89.1408 96.1514 89.6274 98.0436 91.5644L64.8836 113.014C60.5926 114.955 55.7987 115.49 51.1858 114.545L27.2507 107.827C24.6186 107.083 21.8007 107.392 19.3923 108.687L16.9688 109.985L17.5335 89.4674C24.1243 85.0269 32.6169 84.5488 39.6649 88.2209L41.1 88.9637C43.575 90.2426 46.3062 90.9483 49.0917 91.0283L63.1952 91.4158C67.3834 91.5377 70.905 94.5965 71.6116 98.7266L50.3001 98.14C49.3583 98.1143 48.5727 98.8571 48.5469 99.7999C48.5212 100.743 49.264 101.527 50.2068 101.553L73.3914 102.191H73.44C74.3637 102.191 75.1199 101.455 75.1446 100.531C75.1684 99.638 75.0941 98.7457 74.9237 97.8686L90.7652 90.3845ZM1.39062 113.548L2.2315 83.0225L14.2857 83.3548L13.4448 113.881L1.39062 113.548ZM67.5146 20.2344V11.458C67.5146 10.5152 66.7509 9.75146 65.8081 9.75146C64.8653 9.75146 64.1016 10.5152 64.1016 11.458V20.2344C64.1016 21.1771 64.8653 21.9409 65.8081 21.9409C66.7509 21.9409 67.5146 21.1771 67.5146 20.2344ZM38.2568 11.458V20.2344C38.2568 21.1771 37.493 21.9409 36.5503 21.9409C35.6075 21.9409 34.8438 21.1771 34.8438 20.2344V11.458C34.8438 10.5152 35.6075 9.75146 36.5503 9.75146C37.493 9.75146 38.2568 10.5152 38.2568 11.458Z" fill="#0BB89D"/>
</g>
<defs>
<clipPath id="clip0_1078_3403">
<rect width="97" height="115" fill="white" transform="translate(0.898438)"/>
</clipPath>
</defs>
</svg>
