<svg width="167" height="120" viewBox="0 0 167 120" fill="none" xmlns="http://www.w3.org/2000/svg">
<path d="M131.034 35C121.175 35 112.281 39.04 105.882 45.56C99.4839 39.08 90.5903 35 80.7309 35C75.3385 35 70.2277 36.24 65.64 38.44V35C65.64 15.72 49.8248 0 30.4279 0H0.246094V30C0.246094 49.28 16.0614 65 35.4582 65H45.5188V120H65.64V70C65.64 61.72 72.4008 55 80.7309 55C89.0611 55 95.8219 61.72 95.8219 70V120H115.943V70C115.943 61.72 122.704 55 131.034 55C139.364 55 146.125 61.72 146.125 70V120H166.246V70C166.246 50.72 150.431 35 131.034 35ZM20.3673 30V20H30.4279C38.7581 20 45.5188 26.72 45.5188 35V45H35.4582C27.128 45 20.3673 38.28 20.3673 30Z" fill="#0BB89D"/>
</svg>
