<svg width="64" height="65" viewBox="0 0 64 65" fill="none" xmlns="http://www.w3.org/2000/svg">
<rect y="0.5" width="64" height="64" rx="32" fill="#0BB89D" fill-opacity="0.1"/>
<path d="M46.9677 36.1078H43.871V34.5588C43.871 33.7048 43.1763 33.0098 42.3226 33.0098H37.1613C36.7164 33.0098 36.3174 33.2014 36.0346 33.5029L30.4516 32.5725V31.2785C31.9917 30.3842 33.0323 28.72 33.0323 26.8137H33.5484C34.4021 26.8137 35.0968 26.1187 35.0968 25.2647C35.0968 24.4107 34.4021 23.7157 33.5484 23.7157H33.3006L33.5835 23.0594C34.1141 21.83 34.0191 20.4101 33.3306 19.2617C32.8939 18.5337 32.2555 17.9631 31.4834 17.612L30.0428 16.9558C28.3422 16.1812 26.2575 16.4079 24.7623 17.5289L23.9484 18.1392L23.9494 18.1408C23.1443 18.3509 22.4335 18.8693 21.9969 19.5973C21.4286 20.5453 21.3843 21.7014 21.8782 22.6902L22.3907 23.7157H22.1935C21.3399 23.7157 20.6452 24.4107 20.6452 25.2647C20.6452 26.1187 21.3399 26.8137 22.1935 26.8137H22.7097C22.7097 28.72 23.7502 30.3842 25.2903 31.2785V32.5725L19.0188 33.618C17.2697 33.9098 16 35.4087 16 37.1834V47.9837C16 48.2692 16.2312 48.5 16.5161 48.5H32.5161H33.0323H46.9677C47.537 48.5 48 48.0368 48 47.4673V37.1405C48 36.571 47.537 36.1078 46.9677 36.1078ZM42.8387 34.5588V36.1078H39.5706C39.2939 35.2244 38.6901 34.4901 37.8988 34.0425H42.3226C42.607 34.0425 42.8387 34.2738 42.8387 34.5588ZM36.6452 34.6595C37.4581 34.8263 38.1285 35.3726 38.4671 36.1078H36.6452V34.6595ZM34.0645 25.2647C34.0645 25.5492 33.8328 25.781 33.5484 25.781H33.0323V24.7484H33.5484C33.8328 24.7484 34.0645 24.9802 34.0645 25.2647ZM22.8821 20.1287C23.2743 19.475 23.9917 19.0686 24.7535 19.0686C25.5628 19.0686 26.3138 19.4708 26.7634 20.1442L26.9254 20.3873L27.7843 19.8147L27.6222 19.5715C27.1566 18.8734 26.4625 18.3829 25.6754 18.165C26.8439 17.4401 28.3577 17.3224 29.615 17.895L31.0555 18.5512C31.6361 18.8156 32.1166 19.2447 32.4454 19.7925C32.9636 20.6564 33.0348 21.7247 32.6359 22.65L32.6013 22.7305L31.9458 21.419C31.8772 21.2822 31.7517 21.1825 31.6026 21.1474C31.4539 21.1118 31.297 21.1453 31.1742 21.2367L30.3484 21.8563C29.6382 22.3897 28.7582 22.683 27.871 22.683C26.9837 22.683 26.1037 22.3897 25.3935 21.8569L24.5677 21.2372C24.4449 21.1448 24.2875 21.1118 24.1394 21.1479C23.9902 21.183 23.8648 21.2827 23.7961 21.4195L23.0968 22.8193L22.8015 22.2286C22.4661 21.5574 22.496 20.772 22.8821 20.1287ZM22.1935 25.781C21.9092 25.781 21.6774 25.5492 21.6774 25.2647C21.6774 24.9802 21.9092 24.7484 22.1935 24.7484H22.7097V25.781H22.1935ZM23.7419 26.8137V23.8375L24.4428 22.4346L24.7742 22.683C25.6619 23.3491 26.7618 23.7157 27.871 23.7157C28.9801 23.7157 30.08 23.3491 30.9677 22.683L31.2991 22.4346L32 23.8375V26.8137C32 29.0913 30.1476 30.9444 27.871 30.9444C25.5943 30.9444 23.7419 29.0913 23.7419 26.8137ZM27.871 31.9771C28.4103 31.9771 28.9301 31.8935 29.4194 31.7391V32.796L27.871 34.3451L26.3226 32.796V31.7391C26.8119 31.8935 27.3316 31.9771 27.871 31.9771ZM27.7043 37.6569H28.0377L28.88 39.7635L27.871 44.1385L26.8619 39.7635L27.7043 37.6569ZM28.8495 35.5156L28.111 36.6242H27.631L26.8919 35.5156L27.0643 34.9987L27.5061 35.4407C27.6067 35.5409 27.7388 35.5915 27.871 35.5915C28.0031 35.5915 28.1352 35.5409 28.2359 35.4402L28.6777 34.9982L28.8495 35.5156ZM22.1935 47.4673V38.6895H21.1613V47.4673H17.0323V37.1834C17.0323 35.9163 17.9391 34.8449 19.1886 34.6363L25.6294 33.5628L26.2483 34.1819L25.8328 35.4283C25.7822 35.5796 25.8044 35.7454 25.8932 35.8781L26.7747 37.2009L25.8431 39.5307C25.8039 39.6282 25.7961 39.7356 25.8194 39.8384L27.3677 46.5508C27.4219 46.7852 27.6305 46.951 27.871 46.951C28.1115 46.951 28.32 46.7852 28.3742 46.5508L29.9226 39.8384C29.9458 39.7362 29.9381 39.6288 29.8988 39.5307L28.9672 37.2009L29.8488 35.8781C29.937 35.7454 29.9592 35.5796 29.9092 35.4283L29.4937 34.1819L30.1125 33.5628L35.6206 34.4809C35.6196 34.5072 35.6129 34.532 35.6129 34.5588V36.1078H32.5161C31.9468 36.1078 31.4839 36.571 31.4839 37.1405V47.4673H22.1935ZM33.0323 47.4673H32.5161V46.4346H46.9683V47.4673H33.0323ZM46.9683 45.402H32.5161V41.2139C33.1726 41.8857 34.0862 42.3039 35.0968 42.3039H38.1935V42.8203C38.1935 43.6743 38.8883 44.3693 39.7419 44.3693C40.5956 44.3693 41.2903 43.6743 41.2903 42.8203V42.3039H44.3871C45.3977 42.3039 46.3117 41.8852 46.9683 41.2139V45.402ZM39.2258 42.8203V40.2386H40.2581V42.8203C40.2581 43.1053 40.0263 43.3366 39.7419 43.3366C39.4575 43.3366 39.2258 43.1053 39.2258 42.8203ZM46.9677 38.6895C46.9677 40.1131 45.8101 41.2712 44.3871 41.2712H41.2903V39.7222C41.2903 39.4367 41.0591 39.2059 40.7742 39.2059H38.7097C38.4248 39.2059 38.1935 39.4367 38.1935 39.7222V41.2712H35.0968C33.6738 41.2712 32.5161 40.1131 32.5161 38.6895V37.1405H46.9677V38.6895Z" fill="#0BB89D"/>
</svg>
