<svg width="288" height="44" viewBox="0 0 288 44" fill="none" xmlns="http://www.w3.org/2000/svg">
<rect width="41" height="40" rx="2" fill="white"/>
<g clip-path="url(#clip0_1078_3552)">
<path d="M36.9889 37.0001L36.9974 36.9987V24.5292C36.9974 18.4291 35.6841 13.73 28.5526 13.73C25.1243 13.73 22.8236 15.6113 21.8844 17.3949H21.7852V14.2995H15.0234V36.9987H22.0643V25.7589C22.0643 22.7995 22.6253 19.9378 26.2902 19.9378C29.9013 19.9378 29.9551 23.3151 29.9551 25.9487V37.0001H36.9889Z" fill="#0090DB"/>
<path d="M3.5625 14.3008H10.6118V37H3.5625V14.3008Z" fill="#0090DB"/>
<path d="M7.08283 3C4.82892 3 3 4.82892 3 7.08283C3 9.33675 4.82892 11.2039 7.08283 11.2039C9.33675 11.2039 11.1657 9.33675 11.1657 7.08283C11.1642 4.82892 9.33533 3 7.08283 3Z" fill="#0090DB"/>
</g>
<path d="M55.302 34.408C51.2673 34.408 48.0713 33.2067 45.714 30.804L48.332 27.132C50.2813 29.172 52.684 30.192 55.54 30.192C56.7867 30.192 57.75 29.954 58.43 29.478C59.1327 28.9793 59.484 28.3787 59.484 27.676C59.484 27.064 59.1553 26.554 58.498 26.146C57.8633 25.738 57.0587 25.4433 56.084 25.262C55.132 25.0807 54.0893 24.82 52.956 24.48C51.8227 24.14 50.7687 23.7547 49.794 23.324C48.842 22.8933 48.0373 22.2133 47.38 21.284C46.7453 20.3547 46.428 19.2213 46.428 17.884C46.428 15.9347 47.21 14.3027 48.774 12.988C50.338 11.6507 52.4233 10.982 55.03 10.982C58.634 10.982 61.5807 12.036 63.87 14.144L61.184 17.68C59.3933 16.0253 57.1947 15.198 54.588 15.198C53.568 15.198 52.7747 15.402 52.208 15.81C51.6413 16.218 51.358 16.7733 51.358 17.476C51.358 18.02 51.6753 18.4847 52.31 18.87C52.9673 19.2327 53.772 19.5047 54.724 19.686C55.6987 19.8673 56.7413 20.1393 57.852 20.502C58.9853 20.842 60.028 21.2387 60.98 21.692C61.9547 22.1227 62.7593 22.814 63.394 23.766C64.0513 24.6953 64.38 25.8173 64.38 27.132C64.38 29.308 63.598 31.0647 62.034 32.402C60.4927 33.7393 58.2487 34.408 55.302 34.408ZM81.7067 34H77.3887V32.3C76.2101 33.7053 74.4761 34.408 72.1867 34.408C70.7134 34.408 69.3874 33.932 68.2087 32.98C67.0527 32.0053 66.4747 30.668 66.4747 28.968C66.4747 27.2 67.0414 25.874 68.1747 24.99C69.3307 24.106 70.6681 23.664 72.1867 23.664C74.5214 23.664 76.2554 24.3327 77.3887 25.67V23.46C77.3887 22.6213 77.0601 21.9527 76.4027 21.454C75.7454 20.9553 74.8727 20.706 73.7847 20.706C71.9941 20.706 70.3961 21.352 68.9907 22.644L67.3587 19.754C69.3081 18.0313 71.6994 17.17 74.5327 17.17C76.6407 17.17 78.3634 17.6573 79.7007 18.632C81.0381 19.6067 81.7067 21.1933 81.7067 23.392V34ZM73.9207 31.484C75.5301 31.484 76.6861 31.008 77.3887 30.056V28.016C76.6861 27.064 75.5301 26.588 73.9207 26.588C73.0367 26.588 72.3001 26.8147 71.7107 27.268C71.1214 27.6987 70.8267 28.2993 70.8267 29.07C70.8267 29.818 71.1214 30.4073 71.7107 30.838C72.3001 31.2687 73.0367 31.484 73.9207 31.484ZM90.3077 34H85.9897V11.322H90.3077V34ZM102.307 34.408C99.7686 34.408 97.6719 33.6147 96.0173 32.028C94.3626 30.4413 93.5353 28.356 93.5353 25.772C93.5353 23.3467 94.3286 21.3067 95.9153 19.652C97.5246 17.9973 99.5646 17.17 102.035 17.17C104.483 17.17 106.467 18.0087 107.985 19.686C109.504 21.3407 110.263 23.5167 110.263 26.214V27.166H98.0573C98.1933 28.254 98.6806 29.1607 99.5193 29.886C100.358 30.6113 101.446 30.974 102.783 30.974C103.509 30.974 104.291 30.8267 105.129 30.532C105.991 30.2373 106.671 29.8407 107.169 29.342L109.073 32.13C107.419 33.6487 105.163 34.408 102.307 34.408ZM106.081 24.242C106.013 23.3127 105.639 22.474 104.959 21.726C104.302 20.978 103.327 20.604 102.035 20.604C100.811 20.604 99.8593 20.978 99.1793 21.726C98.4993 22.4513 98.1026 23.29 97.9893 24.242H106.081ZM119.298 34.408C117.87 34.408 116.499 34.1813 115.184 33.728C113.892 33.2747 112.816 32.6513 111.954 31.858L113.824 28.832C114.459 29.4213 115.32 29.9427 116.408 30.396C117.496 30.8493 118.528 31.076 119.502 31.076C120.409 31.076 121.089 30.9173 121.542 30.6C122.018 30.2827 122.256 29.852 122.256 29.308C122.256 28.9 122.007 28.5713 121.508 28.322C121.032 28.05 120.432 27.8573 119.706 27.744C119.004 27.6307 118.222 27.4607 117.36 27.234C116.522 27.0073 115.74 26.7353 115.014 26.418C114.312 26.1007 113.711 25.602 113.212 24.922C112.736 24.2193 112.498 23.358 112.498 22.338C112.498 20.8873 113.099 19.6633 114.3 18.666C115.502 17.6687 117.145 17.17 119.23 17.17C121.769 17.17 123.979 17.918 125.86 19.414L124.126 22.372C123.605 21.828 122.902 21.3747 122.018 21.012C121.157 20.6493 120.239 20.468 119.264 20.468C118.494 20.468 117.87 20.6267 117.394 20.944C116.918 21.2387 116.68 21.624 116.68 22.1C116.68 22.4627 116.918 22.7687 117.394 23.018C117.87 23.2447 118.471 23.4147 119.196 23.528C119.922 23.6413 120.704 23.8227 121.542 24.072C122.381 24.2987 123.163 24.582 123.888 24.922C124.614 25.2393 125.214 25.7607 125.69 26.486C126.166 27.2113 126.404 28.0953 126.404 29.138C126.404 30.6793 125.77 31.9487 124.5 32.946C123.254 33.9207 121.52 34.408 119.298 34.408ZM158.685 34H154.027L143.215 19.21V34H138.387V11.322H143.351L153.857 25.568V11.322H158.685V34ZM177.232 34H172.914V32.3C171.735 33.7053 170.001 34.408 167.712 34.408C166.239 34.408 164.913 33.932 163.734 32.98C162.578 32.0053 162 30.668 162 28.968C162 27.2 162.567 25.874 163.7 24.99C164.856 24.106 166.193 23.664 167.712 23.664C170.047 23.664 171.781 24.3327 172.914 25.67V23.46C172.914 22.6213 172.585 21.9527 171.928 21.454C171.271 20.9553 170.398 20.706 169.31 20.706C167.519 20.706 165.921 21.352 164.516 22.644L162.884 19.754C164.833 18.0313 167.225 17.17 170.058 17.17C172.166 17.17 173.889 17.6573 175.226 18.632C176.563 19.6067 177.232 21.1933 177.232 23.392V34ZM169.446 31.484C171.055 31.484 172.211 31.008 172.914 30.056V28.016C172.211 27.064 171.055 26.588 169.446 26.588C168.562 26.588 167.825 26.8147 167.236 27.268C166.647 27.6987 166.352 28.2993 166.352 29.07C166.352 29.818 166.647 30.4073 167.236 30.838C167.825 31.2687 168.562 31.484 169.446 31.484ZM190.423 34H185.765L179.169 17.578H183.793L188.077 29.002L192.361 17.578H197.019L190.423 34ZM201.089 15.81C200.386 15.81 199.774 15.5607 199.253 15.062C198.754 14.5407 198.505 13.9287 198.505 13.226C198.505 12.5233 198.754 11.9227 199.253 11.424C199.774 10.9253 200.386 10.676 201.089 10.676C201.814 10.676 202.426 10.9253 202.925 11.424C203.423 11.9227 203.673 12.5233 203.673 13.226C203.673 13.9287 203.423 14.5407 202.925 15.062C202.426 15.5607 201.814 15.81 201.089 15.81ZM203.265 34H198.947V17.578H203.265V34ZM214.278 40.664C211.445 40.664 209.088 39.848 207.206 38.216L209.144 35.088C210.368 36.448 212.08 37.128 214.278 37.128C215.502 37.128 216.556 36.7993 217.44 36.142C218.347 35.5073 218.8 34.4533 218.8 32.98V31.314C217.44 33.0367 215.752 33.898 213.734 33.898C211.604 33.898 209.858 33.1727 208.498 31.722C207.161 30.2487 206.492 28.186 206.492 25.534C206.492 22.9047 207.161 20.8533 208.498 19.38C209.858 17.9067 211.604 17.17 213.734 17.17C215.774 17.17 217.463 18.0087 218.8 19.686V17.578H223.152V32.878C223.152 34.374 222.88 35.6547 222.336 36.72C221.815 37.7853 221.101 38.59 220.194 39.134C219.288 39.678 218.347 40.0633 217.372 40.29C216.42 40.5393 215.389 40.664 214.278 40.664ZM215.094 30.056C215.797 30.056 216.5 29.8747 217.202 29.512C217.905 29.1493 218.438 28.7073 218.8 28.186V22.882C218.438 22.338 217.905 21.896 217.202 21.556C216.522 21.1933 215.82 21.012 215.094 21.012C213.848 21.012 212.839 21.42 212.068 22.236C211.32 23.052 210.946 24.1513 210.946 25.534C210.946 26.9167 211.32 28.016 212.068 28.832C212.839 29.648 213.848 30.056 215.094 30.056ZM241.613 34H237.295V32.3C236.116 33.7053 234.382 34.408 232.093 34.408C230.62 34.408 229.294 33.932 228.115 32.98C226.959 32.0053 226.381 30.668 226.381 28.968C226.381 27.2 226.948 25.874 228.081 24.99C229.237 24.106 230.574 23.664 232.093 23.664C234.428 23.664 236.162 24.3327 237.295 25.67V23.46C237.295 22.6213 236.966 21.9527 236.309 21.454C235.652 20.9553 234.779 20.706 233.691 20.706C231.9 20.706 230.302 21.352 228.897 22.644L227.265 19.754C229.214 18.0313 231.606 17.17 234.439 17.17C236.547 17.17 238.27 17.6573 239.607 18.632C240.944 19.6067 241.613 21.1933 241.613 23.392V34ZM233.827 31.484C235.436 31.484 236.592 31.008 237.295 30.056V28.016C236.592 27.064 235.436 26.588 233.827 26.588C232.943 26.588 232.206 26.8147 231.617 27.268C231.028 27.6987 230.733 28.2993 230.733 29.07C230.733 29.818 231.028 30.4073 231.617 30.838C232.206 31.2687 232.943 31.484 233.827 31.484ZM251.404 34.408C249.885 34.408 248.729 34.0227 247.936 33.252C247.143 32.4813 246.746 31.3707 246.746 29.92V21.352H244.026V17.578H246.746V13.09H251.098V17.578H254.43V21.352H251.098V28.764C251.098 29.2853 251.234 29.716 251.506 30.056C251.778 30.396 252.141 30.566 252.594 30.566C253.274 30.566 253.773 30.4073 254.09 30.09L255.008 33.354C254.215 34.0567 253.013 34.408 251.404 34.408ZM271.324 31.926C269.738 33.5807 267.63 34.408 265 34.408C262.371 34.408 260.263 33.5807 258.676 31.926C257.112 30.2487 256.33 28.1973 256.33 25.772C256.33 23.3467 257.112 21.3067 258.676 19.652C260.263 17.9973 262.371 17.17 265 17.17C267.63 17.17 269.738 17.9973 271.324 19.652C272.911 21.3067 273.704 23.3467 273.704 25.772C273.704 28.1973 272.911 30.2487 271.324 31.926ZM261.94 29.206C262.688 30.1127 263.708 30.566 265 30.566C266.292 30.566 267.312 30.1127 268.06 29.206C268.831 28.2767 269.216 27.132 269.216 25.772C269.216 24.4347 268.831 23.3127 268.06 22.406C267.312 21.4767 266.292 21.012 265 21.012C263.708 21.012 262.688 21.4767 261.94 22.406C261.192 23.3127 260.818 24.4347 260.818 25.772C260.818 27.132 261.192 28.2767 261.94 29.206ZM281.226 34H276.908V17.578H281.226V19.822C281.838 19.0513 282.62 18.4167 283.572 17.918C284.524 17.4193 285.487 17.17 286.462 17.17V21.386C286.167 21.318 285.77 21.284 285.272 21.284C284.546 21.284 283.776 21.4653 282.96 21.828C282.144 22.1907 281.566 22.6327 281.226 23.154V34Z" fill="white"/>
<defs>
<clipPath id="clip0_1078_3552">
<rect width="34" height="34" fill="white" transform="translate(3 3)"/>
</clipPath>
</defs>
</svg>
