<svg width="64" height="65" viewBox="0 0 64 65" fill="none" xmlns="http://www.w3.org/2000/svg">
<rect y="0.5" width="64" height="64" rx="32" fill="#0BB89D" fill-opacity="0.1"/>
<path d="M35.375 28.375C35.03 28.375 34.75 28.655 34.75 29C34.75 29.345 35.03 29.625 35.375 29.625C35.72 29.625 36 29.345 36 29C36 28.655 35.72 28.375 35.375 28.375Z" fill="#0BB89D"/>
<path d="M47.2676 44.2324L38.9251 35.8899C40.2841 33.8428 41 31.4722 41 29C41 22.1075 35.3925 16.5 28.5 16.5C21.6075 16.5 16 22.1075 16 29C16 35.8925 21.6075 41.5 28.5 41.5C30.9722 41.5 33.3429 40.7841 35.3899 39.4251L37.6959 41.7311C37.6962 41.7314 37.6965 41.7317 37.6969 41.7321L43.7324 47.7676C44.2048 48.2399 44.8324 48.5 45.5 48.5C46.1676 48.5 46.7953 48.2399 47.2674 47.7677C47.7398 47.2957 48 46.6679 48 46C48 45.3321 47.7398 44.7043 47.2676 44.2324ZM35.096 38.1079L35.0959 38.1081C33.1667 39.5093 30.8859 40.25 28.5 40.25C22.2968 40.25 17.25 35.2033 17.25 29C17.25 22.7968 22.2968 17.75 28.5 17.75C34.7033 17.75 39.75 22.7968 39.75 29C39.75 31.3859 39.0093 33.6667 37.608 35.5959C36.9069 36.5618 36.0618 37.4069 35.096 38.1079ZM36.4072 38.6746C37.0541 38.1454 37.6454 37.5541 38.1746 36.9072L39.9478 38.6804C39.4085 39.3169 38.8169 39.9086 38.1804 40.4478L36.4072 38.6746ZM46.3837 46.8837C46.1474 47.1199 45.8336 47.25 45.5 47.25C45.1664 47.25 44.8526 47.1199 44.6163 46.8837L39.0666 41.334C39.6996 40.7908 40.2908 40.1996 40.8339 39.5667L46.3838 45.1166C46.6199 45.3524 46.75 45.6661 46.75 46C46.75 46.3339 46.6199 46.6476 46.3837 46.8837Z" fill="#0BB89D"/>
<path d="M28.5 19C22.9859 19 18.5 23.4859 18.5 29C18.5 34.5141 22.9859 39 28.5 39C34.0141 39 38.5 34.5141 38.5 29C38.5 23.4859 34.0141 19 28.5 19ZM28.5 37.75C23.6753 37.75 19.75 33.8247 19.75 29C19.75 24.1753 23.6753 20.25 28.5 20.25C33.3247 20.25 37.25 24.1753 37.25 29C37.25 33.8247 33.3247 37.75 28.5 37.75Z" fill="#0BB89D"/>
<path d="M35.5041 26.3171C34.9659 24.9163 34.0288 23.7187 32.7941 22.8538C31.5299 21.9681 30.0451 21.5 28.5 21.5C28.1549 21.5 27.875 21.7799 27.875 22.125C27.875 22.4701 28.1549 22.75 28.5 22.75C31.0687 22.75 33.4144 24.3636 34.3372 26.7654C34.4327 27.0139 34.6696 27.1664 34.9208 27.1664C34.9953 27.1664 35.0711 27.153 35.1448 27.1247C35.467 27.0009 35.6279 26.6393 35.5041 26.3171Z" fill="#0BB89D"/>
</svg>
